<?xml version="1.0" standalone="no"?>
<!DOCTYPE svg PUBLIC "-//W3C//DTD SVG 20010904//EN"
 "http://www.w3.org/TR/2001/REC-SVG-20010904/DTD/svg10.dtd">
<svg version="1.0" xmlns="http://www.w3.org/2000/svg"
 width="200.000000pt" height="200.000000pt" viewBox="0 0 200.000000 200.000000"
 preserveAspectRatio="xMidYMid meet">

<g transform="translate(0.000000,200.000000) scale(0.100000,-0.100000)"
fill="#000000" stroke="none">
<path d="M807 1891 c-65 -59 -152 -91 -243 -91 l-61 0 -72 -82 c-69 -81 -71
-84 -71 -138 0 -74 -46 -189 -100 -252 l-42 -49 4 -106 4 -106 51 -46 c71 -65
113 -143 113 -212 0 -54 1 -55 64 -118 l65 -64 -21 -30 c-20 -28 -20 -31 -5
-56 15 -24 21 -26 96 -29 l81 -3 0 -93 c0 -80 -3 -95 -17 -101 -30 -11 -179
-22 -220 -16 l-38 6 -5 85 -5 84 -76 41 c-41 22 -99 55 -127 74 -29 18 -54 32
-56 30 -2 -2 -6 -40 -9 -85 -8 -109 6 -134 96 -163 36 -12 70 -27 75 -34 5 -7
12 -44 14 -84 4 -86 23 -117 89 -151 41 -22 52 -23 174 -19 80 3 165 13 220
26 118 27 249 27 380 1 104 -22 344 -38 389 -26 14 3 41 20 61 37 l35 31 0 93
c0 68 4 97 14 108 8 8 50 20 93 26 96 14 117 28 131 83 15 62 26 168 17 168
-4 0 -31 -11 -59 -25 -54 -26 -155 -55 -192 -55 -12 0 -33 -9 -48 -21 -25 -20
-26 -24 -26 -119 0 -80 -3 -99 -16 -104 -27 -10 -199 -7 -233 5 l-31 11 0 89
0 89 73 0 c67 0 75 2 100 28 15 15 27 33 27 38 0 5 -13 25 -30 44 -16 19 -29
40 -30 45 0 6 31 41 69 79 l69 69 -5 52 c-8 75 28 177 79 228 l38 38 0 107 0
106 -44 46 c-56 57 -96 150 -96 222 0 53 0 54 -78 131 l-77 77 -62 0 c-82 0
-176 35 -240 88 l-49 42 -92 0 -92 0 -53 -49z m280 -9 l42 -37 -17 -62 c-9
-35 -19 -63 -22 -63 -3 0 -20 15 -37 33 -30 31 -31 34 -26 100 3 37 8 67 12
67 3 0 25 -17 48 -38z m-217 -36 c11 -61 11 -66 -11 -95 -12 -17 -24 -31 -26
-31 -3 0 -53 109 -53 116 0 8 63 74 70 74 4 0 13 -29 20 -64z m482 -54 c15 -6
13 -13 -15 -59 -28 -46 -37 -53 -77 -62 -24 -5 -46 -8 -48 -6 -2 2 11 30 30
61 22 38 43 61 58 65 32 9 32 9 52 1z m-695 -64 c15 -29 29 -56 31 -60 2 -5
-18 -8 -45 -8 -47 0 -51 2 -86 49 -20 26 -37 53 -37 60 0 7 20 11 55 11 l55 0
27 -52z m392 -3 c17 -19 55 -47 83 -61 45 -23 59 -25 110 -20 l59 7 45 -47
c43 -43 45 -49 39 -86 -10 -59 32 -153 90 -202 43 -36 45 -39 45 -92 0 -50 -3
-57 -36 -86 -19 -17 -47 -54 -61 -82 -22 -43 -25 -59 -20 -111 5 -57 4 -63
-30 -112 l-36 -53 -116 0 -116 0 62 33 c238 123 325 374 211 607 -84 173 -293
282 -482 251 -374 -61 -532 -503 -271 -763 35 -35 85 -72 128 -93 l70 -35
-104 0 c-102 0 -103 0 -136 32 -27 26 -33 40 -33 74 0 49 -53 172 -84 194 -55
39 -66 58 -66 113 0 48 3 56 36 88 20 18 49 61 66 93 29 57 30 62 19 115 l-11
55 47 48 c45 46 50 48 102 48 78 0 165 35 205 82 30 36 34 38 92 38 57 0 63
-2 93 -35z m85 -106 c84 -34 186 -131 229 -218 30 -63 32 -72 32 -181 0 -108
-2 -119 -31 -180 -83 -173 -280 -278 -467 -249 -141 22 -278 123 -340 248 -30
62 -32 72 -32 176 0 103 2 114 32 178 56 117 173 217 289 246 69 18 221 7 288
-20z m374 -78 c-12 -9 -39 -26 -60 -39 l-38 -23 0 45 c0 43 2 46 58 85 l57 41
3 -46 c3 -39 -1 -49 -20 -63z m-1068 44 c41 -30 49 -41 57 -85 6 -27 7 -50 4
-50 -3 1 -31 16 -61 34 -54 32 -55 33 -58 84 -2 29 0 52 4 52 3 0 28 -16 54
-35z m1195 -215 c42 -43 43 -42 -45 -58 -52 -10 -57 -9 -94 19 l-39 28 29 12
c57 22 99 38 104 38 3 1 23 -17 45 -39z m-1222 -27 c20 -3 37 -9 37 -12 0 -4
-15 -22 -34 -40 -33 -32 -37 -33 -88 -27 -80 10 -85 17 -47 61 28 32 37 36 63
31 17 -4 48 -9 69 -13z m1215 -199 c23 -4 42 -10 42 -13 0 -4 -13 -20 -30 -36
-29 -28 -30 -28 -91 -17 -34 6 -64 14 -68 17 -12 12 63 65 84 60 11 -3 39 -8
63 -11z m-1199 -64 c19 -16 33 -32 30 -34 -2 -2 -30 -15 -61 -29 l-56 -25 -41
35 c-23 19 -41 38 -41 41 0 8 94 39 120 40 8 1 30 -12 49 -28z m1061 -128 c53
-26 55 -29 63 -76 4 -27 5 -51 2 -54 -6 -7 -102 37 -114 52 -12 15 -24 106
-14 106 4 0 33 -13 63 -28z m-962 -83 c-2 -27 -13 -41 -53 -71 -27 -21 -53
-38 -57 -38 -5 0 -8 22 -8 49 0 49 0 49 53 79 28 17 56 27 60 22 5 -4 7 -23 5
-41z m898 -115 l37 -45 -20 -21 -21 -20 -35 47 c-31 40 -34 50 -24 66 6 10 15
19 19 19 4 0 23 -21 44 -46z m-847 -45 c-37 -59 -46 -66 -66 -46 -14 14 -12
21 27 67 33 39 45 48 56 40 10 -9 7 -21 -17 -61z m183 26 c-2 -11 -13 -50 -24
-87 l-20 -68 -39 0 c-21 0 -39 4 -39 9 0 5 14 46 31 91 31 79 32 81 63 78 25
-2 30 -7 28 -23z m144 -57 c-4 -45 -8 -83 -9 -84 -1 0 -17 -4 -34 -7 -42 -8
-43 -3 -8 151 4 16 13 22 32 22 l26 0 -7 -82z m199 60 c10 -46 24 -152 21
-156 -2 -2 -20 0 -41 4 -42 8 -50 23 -61 113 l-7 61 42 0 c34 0 41 -4 46 -22z
m185 -63 c18 -47 31 -87 29 -89 -2 -2 -21 -6 -41 -9 l-37 -6 -20 91 c-12 49
-21 91 -21 94 0 2 13 4 28 4 26 0 31 -6 62 -85z m591 -150 c-14 -92 -29 -112
-88 -119 -27 -4 -69 -10 -95 -14 -46 -8 -46 -8 -72 32 -47 72 -31 90 104 121
41 10 93 26 115 35 22 10 42 16 43 14 2 -1 -1 -33 -7 -69z m-1686 31 c17 -12
59 -37 95 -55 36 -19 69 -37 74 -42 4 -4 -8 -27 -29 -52 l-36 -44 -70 25 c-88
31 -93 40 -90 155 1 52 1 52 56 13z m1088 -7 c116 1 177 -2 177 -8 0 -6 -10
-13 -22 -16 -13 -3 -223 -4 -467 -3 -370 3 -445 5 -449 17 -4 12 14 13 104 9
60 -2 138 -1 174 3 36 4 119 5 185 2 66 -3 200 -4 298 -4z m-13 -135 c0 -77
-2 -85 -17 -80 -121 34 -364 41 -485 14 l-68 -15 0 84 0 83 285 0 285 0 0 -86z
m-902 -80 c-3 -26 -3 -26 -26 -8 l-23 19 23 30 c22 29 23 29 26 7 2 -12 2 -34
0 -48z m1256 50 c7 -19 -2 -56 -13 -50 -10 7 -13 66 -2 66 5 0 12 -7 15 -16z
m-450 -59 c52 -8 113 -22 137 -30 59 -21 224 -21 274 -1 21 9 39 16 41 16 2 0
4 -33 4 -72 -1 -78 -7 -93 -54 -123 -42 -28 -201 -25 -371 6 -159 29 -346 31
-440 4 -33 -9 -116 -19 -186 -22 -118 -5 -130 -4 -173 17 -59 28 -74 50 -82
124 -7 56 -6 59 12 51 31 -14 208 -18 276 -6 35 6 101 20 148 30 107 24 287
26 414 6z"/>
<path d="M925 1620 c-3 -5 -1 -10 4 -10 6 0 11 -11 11 -25 0 -16 6 -25 15 -25
9 0 15 9 15 25 0 14 5 25 11 25 5 0 7 5 4 10 -3 6 -17 10 -30 10 -13 0 -27 -4
-30 -10z"/>
<path d="M887 1589 c5 -25 3 -31 -8 -27 -8 2 -15 14 -17 26 -4 27 -22 29 -22
3 0 -31 28 -53 51 -40 22 12 23 59 2 67 -9 2 -11 -5 -6 -29z"/>
<path d="M1000 1585 c0 -31 3 -35 27 -35 26 0 26 1 7 15 -19 14 -19 14 1 15
11 1 14 4 8 7 -7 2 -13 9 -13 14 0 4 7 6 15 3 8 -4 15 -1 15 5 0 6 -13 11 -30
11 -28 0 -30 -3 -30 -35z"/>
<path d="M780 1588 c-21 -9 -22 -12 -7 -15 9 -3 17 -8 17 -12 0 -4 6 -16 14
-27 14 -17 15 -16 13 24 -1 46 -1 46 -37 30z"/>
<path d="M1094 1565 c-8 -32 6 -48 37 -43 19 2 24 9 24 33 0 25 -4 31 -27 33
-22 3 -29 -2 -34 -23z m44 -12 c-4 -22 -22 -20 -26 1 -2 10 3 16 13 16 10 0
15 -7 13 -17z"/>
<path d="M736 1561 c-8 -12 21 -61 35 -61 14 0 11 12 -10 43 -11 17 -21 25
-25 18z"/>
<path d="M1165 1524 c-20 -31 -18 -34 18 -27 23 5 26 8 15 21 -11 13 -10 14
12 7 22 -7 23 -6 11 9 -19 23 -36 20 -56 -10z"/>
<path d="M688 1526 c-21 -15 -23 -26 -6 -26 6 0 20 -7 30 -17 24 -22 36 -8 14
16 -10 11 -15 25 -11 30 9 15 -6 13 -27 -3z"/>
<path d="M910 1520 c-99 -13 -188 -78 -238 -175 -21 -40 -26 -64 -26 -125 -1
-91 24 -154 86 -217 62 -64 125 -88 228 -87 75 0 92 4 146 31 102 53 154 133
162 248 12 200 -154 350 -358 325z m19 -42 c-43 -83 -222 -398 -226 -398 -13
0 -34 81 -34 135 0 81 28 148 85 204 42 41 120 80 164 81 20 0 22 -2 11 -22z
m162 -8 c126 -65 188 -209 144 -340 -9 -28 -21 -48 -25 -43 -7 7 -57 94 -186
327 -24 43 -44 81 -44 83 0 10 74 -9 111 -27z m-105 -38 c86 -150 194 -348
194 -354 0 -4 -48 -8 -107 -8 -87 1 -105 3 -92 13 36 28 50 88 29 128 -6 10
-15 19 -21 19 -5 0 -2 -11 7 -25 24 -37 6 -53 -59 -51 -42 1 -52 5 -55 19 -2
10 4 27 13 37 10 11 12 20 6 24 -16 10 -41 -35 -41 -73 0 -24 8 -44 27 -63
l27 -28 -87 0 c-48 0 -87 4 -87 9 0 13 211 391 219 391 3 0 16 -17 27 -38z
m204 -391 c0 -16 -76 -71 -122 -87 -54 -20 -149 -23 -210 -5 -45 13 -128 72
-128 92 0 5 96 9 230 9 133 0 230 -4 230 -9z"/>
<path d="M933 1338 c-20 -80 -18 -138 3 -145 14 -5 33 42 35 87 3 76 -1 140
-9 140 -5 0 -18 -37 -29 -82z"/>
<path d="M1256 1476 c3 -8 -3 -19 -16 -26 -11 -6 -18 -15 -15 -21 4 -5 15 -4
28 3 12 7 28 11 35 10 18 -4 15 12 -6 31 -23 21 -33 22 -26 3z"/>
<path d="M630 1465 c-20 -24 3 -44 30 -27 22 14 27 3 8 -17 -11 -11 -10 -13 1
-9 24 7 37 36 23 50 -9 9 -15 9 -24 0 -17 -17 -33 -15 -18 3 7 8 8 15 2 15 -5
0 -15 -7 -22 -15z"/>
<path d="M605 1404 c19 -14 19 -15 -3 -20 -29 -8 -28 -22 3 -36 26 -12 49 -3
26 11 -9 6 -7 10 8 14 28 7 26 21 -4 35 -36 17 -54 14 -30 -4z"/>
<path d="M1275 1408 c-11 -6 -21 -12 -23 -14 -5 -3 22 -44 29 -44 4 0 5 10 3
23 -2 12 -2 16 2 10 9 -20 27 -15 20 4 -6 15 -4 15 14 -2 22 -20 26 -14 10 16
-12 22 -26 23 -55 7z"/>
<path d="M1292 1338 c-16 -16 -15 -33 3 -48 19 -16 32 -5 17 13 -13 15 -6 27
14 27 7 0 14 -10 17 -22 3 -20 4 -21 11 -5 16 34 -34 63 -62 35z"/>
<path d="M560 1332 c0 -12 58 -27 67 -18 9 9 2 13 -34 21 -20 4 -33 3 -33 -3z"/>
<path d="M606 1268 c-5 -10 -19 -18 -32 -18 -32 0 -31 -16 2 -24 33 -9 47 4
42 35 -4 21 -6 22 -12 7z"/>
<path d="M1300 1261 c0 -5 7 -11 15 -15 8 -3 15 -10 15 -16 0 -5 -7 -10 -15
-10 -8 0 -15 -4 -15 -10 0 -5 16 -10 35 -10 37 0 47 13 18 25 -17 6 -17 7 0
19 25 19 21 26 -18 26 -19 0 -35 -4 -35 -9z"/>
<path d="M573 1198 c-24 -12 -31 -38 -10 -38 6 0 21 -3 33 -6 18 -5 21 -1 20
25 -1 33 -8 36 -43 19z"/>
<path d="M1300 1182 c0 -6 6 -12 13 -15 8 -3 6 -9 -8 -20 -24 -18 -21 -22 23
-32 20 -4 32 -3 32 4 0 6 -8 11 -17 11 -15 0 -13 4 7 20 14 10 23 21 20 23
-12 11 -70 18 -70 9z"/>
<path d="M592 1132 c-24 -7 -28 -29 -4 -24 10 3 10 -1 0 -17 -16 -27 -6 -35
29 -24 30 10 34 30 5 25 -14 -3 -15 -1 -4 9 13 14 17 40 5 38 -5 -1 -18 -4
-31 -7z"/>
<path d="M1267 1086 c-9 -23 2 -44 24 -51 26 -9 51 13 47 39 -4 27 -62 36 -71
12z m53 -22 c0 -16 -26 -19 -35 -4 -3 6 -4 14 0 20 8 13 35 1 35 -16z"/>
<path d="M616 1045 c-21 -21 -20 -28 4 -50 20 -18 21 -18 43 3 17 18 19 26 11
40 -15 23 -38 26 -58 7z m44 -19 c0 -17 -27 -29 -35 -16 -4 6 -3 15 0 20 9 15
35 12 35 -4z"/>
<path d="M1232 1019 c-12 -19 -11 -20 8 -14 11 4 27 1 35 -5 8 -6 19 -9 26 -5
7 5 1 14 -18 26 -35 23 -35 23 -51 -2z"/>
<path d="M669 981 c-13 -11 -21 -22 -17 -26 7 -7 57 25 58 38 0 13 -17 8 -41
-12z"/>
<path d="M1187 972 c-23 -25 -2 -55 33 -50 31 4 39 37 14 55 -23 17 -28 17
-47 -5z m38 -13 c10 -15 -1 -23 -20 -15 -9 3 -13 10 -10 16 8 13 22 13 30 -1z"/>
<path d="M703 950 c-31 -16 -32 -18 -15 -34 20 -17 47 -22 37 -6 -3 5 -1 19 5
31 16 28 11 30 -27 9z"/>
<path d="M756 939 c-20 -66 -10 -81 34 -49 32 23 36 20 20 -11 -14 -26 -2 -46
14 -23 12 16 13 15 19 -5 7 -30 23 -26 35 9 12 33 -1 50 -17 23 -10 -17 -10
-17 -11 0 0 9 -12 23 -27 29 -16 7 -36 18 -45 26 -15 12 -18 13 -22 1z m24
-29 c0 -5 -5 -10 -11 -10 -5 0 -7 5 -4 10 3 6 8 10 11 10 2 0 4 -4 4 -10z"/>
<path d="M1116 925 c-15 -11 -17 -18 -9 -26 13 -13 36 -3 28 12 -4 5 -2 9 4 9
20 0 24 -23 6 -36 -24 -18 -13 -29 14 -14 23 12 27 40 9 58 -16 16 -29 15 -52
-3z"/>
<path d="M1053 888 c2 -7 0 -23 -4 -35 -5 -14 -5 -23 2 -23 5 0 12 7 15 15 5
12 9 13 20 4 25 -20 27 -2 3 25 -24 27 -44 35 -36 14z"/>
<path d="M947 873 c-24 -23 12 -55 38 -33 12 10 13 16 4 26 -12 15 -31 18 -42
7z"/>
<path d="M720 430 c0 -37 2 -41 23 -38 18 2 22 9 22 38 0 29 -4 36 -22 38 -21
3 -23 -1 -23 -38z m32 -12 c-9 -9 -12 -7 -12 12 0 19 3 21 12 12 9 -9 9 -15 0
-24z"/>
<path d="M789 466 c-3 -3 -4 -20 -1 -37 5 -34 29 -50 43 -28 12 19 11 72 -1
64 -5 -3 -10 -17 -10 -31 0 -35 -18 -30 -22 7 -2 17 -6 28 -9 25z"/>
<path d="M861 428 c1 -24 3 -35 6 -25 2 9 7 17 10 17 3 0 12 -8 19 -17 11 -16
13 -13 11 22 -2 33 -7 41 -25 43 -20 3 -22 -1 -21 -40z"/>
<path d="M927 463 c-10 -9 -8 -45 2 -62 5 -8 16 -11 30 -6 24 7 29 35 5 35 -8
0 -12 -4 -9 -10 3 -5 1 -10 -4 -10 -6 0 -11 9 -11 21 0 15 5 19 15 15 9 -3 15
0 15 9 0 15 -31 21 -43 8z"/>
<path d="M1006 458 c-17 -53 -15 -63 9 -63 26 0 30 11 19 53 -7 24 -22 29 -28
10z"/>
<path d="M1060 430 l0 -39 26 24 c29 27 26 55 -6 55 -17 0 -20 -6 -20 -40z
m30 10 c0 -5 -2 -10 -4 -10 -3 0 -8 5 -11 10 -3 6 -1 10 4 10 6 0 11 -4 11
-10z"/>
<path d="M1122 434 c2 -31 7 -39 23 -39 16 0 20 7 21 40 1 32 1 34 -3 8 -5
-38 -23 -45 -23 -9 0 14 -5 28 -11 31 -7 5 -9 -6 -7 -31z"/>
<path d="M1190 428 c1 -39 2 -41 14 -25 14 18 15 18 25 0 9 -15 11 -11 9 22
-3 33 -7 41 -25 43 -21 3 -23 -1 -23 -40z"/>
<path d="M945 293 c-22 -2 -64 -6 -92 -9 -48 -5 -53 -8 -53 -31 0 -17 7 -27
21 -30 12 -3 18 -11 15 -19 -3 -8 -1 -14 5 -14 6 0 7 -5 4 -11 -4 -6 -14 -8
-24 -4 -12 5 -13 3 -4 -6 24 -24 43 -2 43 50 0 50 10 68 32 55 8 -5 7 -9 -5
-13 -16 -6 -16 -8 -2 -29 9 -12 21 -22 28 -22 8 0 8 3 -1 12 -17 17 -15 31 2
25 8 -3 17 -1 20 6 2 7 5 1 5 -13 1 -16 4 -21 11 -14 15 15 2 42 -23 47 -15 3
-11 5 11 6 24 1 32 -3 32 -15 0 -16 27 -43 43 -44 4 0 7 14 7 30 0 23 4 30 20
30 22 0 27 -16 8 -22 -8 -3 -6 -12 6 -29 18 -24 18 -24 13 -1 -5 22 7 31 18
13 3 -6 18 -16 34 -24 l29 -15 4 39 c3 38 3 38 -37 43 -66 8 -127 11 -170 9z
m55 -28 c0 -8 -4 -15 -10 -15 -5 0 -7 7 -4 15 4 8 8 15 10 15 2 0 4 -7 4 -15z
m100 0 c0 -9 -6 -12 -15 -9 -8 4 -12 10 -9 15 8 14 24 10 24 -6z m-260 -9 c0
-8 -4 -18 -10 -21 -5 -3 -10 3 -10 14 0 12 5 21 10 21 6 0 10 -6 10 -14z m292
-18 c-15 -15 -24 -6 -16 16 5 12 10 14 17 7 8 -8 8 -14 -1 -23z"/>
<path d="M579 258 c17 -22 12 -24 -89 -36 -41 -5 -63 -10 -47 -11 26 -1 40
-21 15 -21 -6 0 -4 -6 7 -13 12 -9 14 -16 7 -21 -6 -3 -18 4 -26 16 -9 12 -18
19 -21 16 -3 -3 3 -16 13 -28 21 -26 54 -21 51 7 -3 32 1 41 20 46 17 4 18 2
9 -13 -18 -28 -3 -50 32 -47 27 2 30 5 30 35 0 44 18 40 23 -5 l4 -38 1 43 c2
30 6 42 17 42 9 0 15 -6 13 -12 -2 -7 2 -14 7 -15 6 -1 9 4 7 12 -1 7 2 16 8
20 6 4 10 -8 10 -29 0 -20 5 -36 10 -36 6 0 10 20 10 44 l0 44 -40 -10 c-35
-9 -44 -8 -63 8 -18 16 -19 16 -8 2z m-23 -84 c-8 -20 -24 -18 -22 4 2 25 20
44 24 25 2 -8 1 -21 -2 -29z"/>
<path d="M1230 261 c8 -6 23 -11 33 -11 9 0 17 -5 17 -11 0 -7 -10 -9 -24 -5
-14 3 -28 2 -31 -4 -8 -13 12 -50 27 -50 9 0 9 3 0 12 -7 7 -12 18 -12 25 0
11 4 11 20 1 11 -7 20 -18 20 -25 0 -7 5 -13 10 -13 6 0 10 18 10 40 0 31 -4
40 -17 40 -10 0 -29 3 -43 6 -20 4 -22 3 -10 -5z"/>
<path d="M710 239 c0 -5 5 -7 10 -4 6 3 10 8 10 11 0 2 -4 4 -10 4 -5 0 -10
-5 -10 -11z"/>
<path d="M1319 248 c-8 -27 -7 -53 2 -64 13 -16 29 -18 29 -4 0 6 -7 10 -15
10 -8 0 -15 5 -15 10 0 26 45 5 53 -25 3 -12 5 -4 6 18 1 43 18 50 23 10 4
-38 31 -36 39 2 5 21 7 24 9 10 1 -11 2 -27 1 -37 -1 -9 3 -19 9 -23 6 -4 10
9 10 35 0 25 4 39 10 35 6 -3 10 -15 10 -26 0 -16 5 -19 19 -14 14 4 21 0 24
-12 3 -12 5 -9 6 9 0 14 4 33 7 41 5 13 -10 16 -90 19 -74 2 -95 0 -91 -9 2
-7 0 -13 -4 -13 -5 0 -11 7 -15 15 -4 12 -24 21 -27 13z m111 -44 c0 -8 -4
-14 -10 -14 -5 0 -10 9 -10 21 0 11 5 17 10 14 6 -3 10 -13 10 -21z m95 17 c3
-5 1 -12 -5 -16 -5 -3 -10 1 -10 9 0 18 6 21 15 7z"/>
<path d="M1535 140 c3 -5 8 -10 11 -10 2 0 4 5 4 10 0 6 -5 10 -11 10 -5 0 -7
-4 -4 -10z"/>
</g>
</svg>
